<svg xmlns="http://www.w3.org/2000/svg" viewBox="0 0 160 160" role="img" aria-label="Navo mark">
  <defs>
    <linearGradient id="navo-ribbon" x1="28" y1="18" x2="132" y2="142" gradientUnits="userSpaceOnUse">
      <stop offset="0" stop-color="#68FFF2"/>
      <stop offset="0.44" stop-color="#00C2D7"/>
      <stop offset="1" stop-color="#003763"/>
    </linearGradient>
    <linearGradient id="navo-ribbon-dark" x1="25" y1="62" x2="118" y2="142" gradientUnits="userSpaceOnUse">
      <stop offset="0" stop-color="#061827"/>
      <stop offset="0.62" stop-color="#006B86"/>
      <stop offset="1" stop-color="#001E3A"/>
    </linearGradient>
    <linearGradient id="navo-pin" x1="104" y1="20" x2="130" y2="84" gradientUnits="userSpaceOnUse">
      <stop offset="0" stop-color="#54FFF1"/>
      <stop offset="0.58" stop-color="#00B5D5"/>
      <stop offset="1" stop-color="#00456F"/>
    </linearGradient>
    <linearGradient id="navo-spark" x1="22" y1="113" x2="61" y2="151" gradientUnits="userSpaceOnUse">
      <stop offset="0" stop-color="#FFF7A8"/>
      <stop offset="0.44" stop-color="#FFB21D"/>
      <stop offset="1" stop-color="#FF7A00"/>
    </linearGradient>
    <filter id="navo-soft-shadow" x="-20%" y="-20%" width="140%" height="140%">
      <feDropShadow dx="0" dy="8" stdDeviation="6" flood-color="#001827" flood-opacity="0.26"/>
    </filter>
  </defs>

  <g filter="url(#navo-soft-shadow)">
    <path fill="url(#navo-ribbon-dark)" d="M27 116V47c0-9 11-14 18-7l77 82c7 8 2 21-9 21-5 0-9-2-12-6L53 85v31c0 7-6 13-13 13S27 123 27 116Z"/>
    <path fill="url(#navo-ribbon)" d="M42 32c7 0 11 4 16 10l61 68c4 4 9 7 15 7 0 18-22 28-35 14L36 62c-7-8-2-30 6-30Z"/>
    <path fill="url(#navo-ribbon-dark)" d="M104 80v35c0 8-10 12-16 6L73 105V70l24 27V80h7Z" opacity="0.86"/>
    <path fill="url(#navo-pin)" d="M96 40c0-18 14-32 32-32s32 14 32 32c0 25-32 57-32 57S96 65 96 40Zm32 12a12 12 0 1 0 0-24 12 12 0 0 0 0 24Z" transform="translate(-10 10) scale(.72)"/>
    <path fill="url(#navo-spark)" d="M28 130c14-4 18-8 22-28 4 20 8 24 22 28-14 4-18 9-22 29-4-20-8-25-22-29Z"/>
  </g>
</svg>
