<svg xmlns="http://www.w3.org/2000/svg" viewBox="0 0 600 150" role="img" aria-label="Navo">
  <defs>
    <linearGradient id="navo-word" x1="0" y1="0" x2="0" y2="150" gradientUnits="userSpaceOnUse">
      <stop offset="0" stop-color="#083C6D"/>
      <stop offset="0.52" stop-color="#052D55"/>
      <stop offset="1" stop-color="#031D39"/>
    </linearGradient>
  </defs>
  <g fill="url(#navo-word)">
    <path d="M16 126V24c0-8 5-13 13-13h11c5 0 9 2 12 6l74 78V24c0-8 5-13 13-13h12c8 0 13 5 13 13v102c0 8-5 13-13 13h-10c-5 0-9-2-13-6L54 55v71c0 8-5 13-13 13H29c-8 0-13-5-13-13Z"/>
    <path d="M194 132 252 22c4-7 9-11 17-11h7c8 0 13 4 17 11l59 110c3 7-1 7-8 7h-23c-8 0-13-4-17-11l-33-65-33 65c-4 7-9 11-17 11h-22c-7 0-11-1-7-7Z"/>
    <path d="M381 128 328 20c-3-6 1-9 8-9h23c8 0 13 4 16 11l34 75 35-75c3-7 8-11 16-11h23c7 0 11 3 8 9l-53 108c-4 8-9 11-17 11h-24c-8 0-13-3-16-11Z"/>
    <path fill-rule="evenodd" d="M500 75c0-37 28-66 68-66s68 29 68 66-28 66-68 66-68-29-68-66Zm38 0c0 17 11 31 30 31s30-14 30-31-11-31-30-31-30 14-30 31Z" transform="translate(-44 0)"/>
  </g>
</svg>
