<svg xmlns="http://www.w3.org/2000/svg" viewBox="0 0 120 120" role="img" aria-label="Navo mark">
  <defs>
    <linearGradient id="n-teal" x1="20" y1="18" x2="92" y2="104" gradientUnits="userSpaceOnUse">
      <stop offset="0" stop-color="#43E5D9"/>
      <stop offset=".46" stop-color="#00C2A8"/>
      <stop offset="1" stop-color="#08738D"/>
    </linearGradient>
    <linearGradient id="n-shadow" x1="24" y1="42" x2="96" y2="104" gradientUnits="userSpaceOnUse">
      <stop offset="0" stop-color="#13324A" stop-opacity=".72"/>
      <stop offset="1" stop-color="#0B1220" stop-opacity=".18"/>
    </linearGradient>
    <filter id="soft-shadow" x="-20%" y="-20%" width="140%" height="140%">
      <feDropShadow dx="0" dy="8" stdDeviation="6" flood-color="#00101C" flood-opacity=".26"/>
    </filter>
  </defs>

  <rect width="120" height="120" rx="28" fill="#0B1220"/>
  <g filter="url(#soft-shadow)">
    <path fill="url(#n-teal)" d="M23 85V34c0-9 11-13 17-6l48 55c5 6 1 16-7 16-3 0-6-1-8-4L42 59v26c0 5-4 9-9 9h-1c-5 0-9-4-9-9Z"/>
    <path fill="url(#n-teal)" d="M79 32c0-11 9-20 20-20s20 9 20 20c0 16-20 36-20 36S79 48 79 32Zm20 8a8 8 0 1 0 0-16 8 8 0 0 0 0 16Z" transform="translate(-8 5) scale(.82)"/>
    <path fill="url(#n-shadow)" d="M33 58c7 0 10 8 15 14l16 19c-6 6-15 4-21-3L33 76v20H23V67c0-5 4-9 10-9Z"/>
    <path fill="#0B1220" d="M76 52v23c0 7-9 10-14 5L52 69v-23l18 20V52h6Z" opacity=".74"/>
    <path fill="#FF8A00" d="M27 90c8-2 10-4 12-15 2 11 4 13 12 15-8 2-10 5-12 16-2-11-4-14-12-16Z"/>
  </g>
</svg>
